<svg version="1.0" xmlns="http://www.w3.org/2000/svg"
 width="237.000000px" height="237.000000px">
<g transform="translate(0.000000,237.000000) scale(0.100000,-0.100000)"
fill="#000000" stroke="none">
<path d="M625 2211 c-33 -16 -72 -41 -86 -57 -40 -44 -509 -862 -526 -916 -11
-38 -11 -57 -2 -95 13 -52 483 -878 528 -927 14 -16 53 -41 86 -57 l60 -29
501 0 501 0 59 30 c33 16 71 42 86 57 42 46 509 863 524 918 10 38 11 59 2 95
-12 50 -483 877 -527 924 -14 16 -53 41 -86 57 l-60 29 -500 0 -500 0 -60 -29z
m589 -315 c66 -28 66 -25 66 -383 l0 -323 -29 -32 c-24 -27 -36 -33 -71 -33
-35 0 -47 6 -71 33 l-29 32 0 323 c0 356 0 355 64 383 38 16 31 16 70 0z m352
-132 c57 -27 161 -148 204 -238 188 -390 -23 -845 -435 -942 -98 -23 -276 -15
-365 15 -345 118 -527 485 -415 839 31 100 103 211 180 280 52 46 64 52 103
52 57 0 78 -12 92 -54 16 -51 5 -76 -66 -146 -116 -115 -160 -222 -152 -372
21 -354 420 -559 719 -368 72 47 136 122 176 207 31 64 37 90 41 160 8 150
-43 271 -161 383 -31 29 -58 64 -62 77 -10 43 4 83 38 104 39 23 59 24 103 3z"/>
</g>
</svg>
